<?xml version="1.0" standalone="no"?><!DOCTYPE svg PUBLIC "-//W3C//DTD SVG 1.1//EN" "http://www.w3.org/Graphics/SVG/1.1/DTD/svg11.dtd"><svg t="1728981469508" class="icon" viewBox="0 0 1244 1024" version="1.1" xmlns="http://www.w3.org/2000/svg" p-id="5627" xmlns:xlink="http://www.w3.org/1999/xlink" width="155.5" height="128"><path d="M1244.516905 260.158447a9.634583 9.634583 0 0 0-9.758103-9.659287h-96.345831a9.881624 9.881624 0 0 0-9.733399 9.659287v502.035889a9.881624 9.881624 0 0 0 9.733399 9.708695h96.345831a9.634583 9.634583 0 0 0 9.758103-9.708695zM496.87326 775.336896h-41.799268c-11.092123 0-17.021097-1.630468-17.811627-4.940812a104.473466 104.473466 0 0 0 42.66391-28.261444c10.523929-11.80854 15.687078-26.927424 15.687078-45.257836V325.401867c0-17.910443-4.594955-32.535246-13.661345-43.899113a89.52751 89.52751 0 0 0-36.067926-27.520322c-32.115277-12.35203-67.195041-18.305708-105.733373-17.811627A406.035916 406.035916 0 0 0 286.567605 239.802302a219.544973 219.544973 0 0 0-48.938741 14.18013A88.934613 88.934613 0 0 0 201.610345 281.626274c-10.523929 11.314459-15.785894 25.963966-15.785893 43.825001V696.654467q1.185795 50.075128 52.422013 69.171366a196.866647 196.866647 0 0 0 49.729271 14.007201 272.436364 272.436364 0 0 0 54.34893 5.484301 218.433291 218.433291 0 0 0 38.538332-3.285639c0.79053 14.451875 5.261965 26.433343 13.883682 35.944406 8.177044 9.881624 25.766334 15.020068 52.520829 15.538853h49.605751a9.881624 9.881624 0 0 0 9.758103-9.708695v-38.760669a9.733399 9.733399 0 0 0-9.758103-9.708695z m-117.171352-85.896014c0 8.498196-1.902213 18.478636-7.831187 24.876988-7.411218 7.954707-20.380849 8.5229-30.583625 8.078227q-19.145646 0.765826-28.557893-6.867729c-7.287697-4.32321-10.968602-12.994335-10.968602-26.062782V331.800218c0-12.72259 3.705609-21.616052 10.968602-26.383935q9.412247-6.225423 28.557893-6.225423c9.18991 0 20.603185 0.494081 28.681412 5.706638 8.745237 5.533709 9.634583 17.564586 9.7334 26.878016zM106.079749 250.49916H9.635102a9.683991 9.683991 0 0 0-9.634583 9.659287v96.666983a9.659287 9.659287 0 0 0 9.634583 9.758103h96.34583a9.881624 9.881624 0 0 0 9.7334-9.758103v-96.666983a9.708695 9.708695 0 0 0-9.634583-9.659287zM674.742486 250.49916h-96.345831a9.609879 9.609879 0 0 0-9.634583 9.659287v502.035889a9.585175 9.585175 0 0 0 9.634583 9.683991h96.345831a9.634583 9.634583 0 0 0 9.733399-9.683991V260.158447a9.634583 9.634583 0 0 0-9.733399-9.659287zM106.079749 407.864016H9.635102A9.708695 9.708695 0 0 0 0.000519 417.498599v344.745145a9.683991 9.683991 0 0 0 9.634583 9.659287h96.34583a9.708695 9.708695 0 0 0 9.7334-9.708695V417.498599a9.733399 9.733399 0 0 0-9.634583-9.634583zM1075.83759 263.468791a10.746266 10.746266 0 0 0 0.667009-3.28564 9.881624 9.881624 0 0 0-8.745237-9.609879H968.646677a9.535767 9.535767 0 0 0-8.745237 5.731341 1.012866 1.012866 0 0 1-0.222336 0.617602s-50.742137 158.797692-55.559429 185.873341C899.228271 415.695203 848.461429 256.922215 848.461429 256.922215s-0.222337-0.370561-0.345856-0.617602a9.264022 9.264022 0 0 0-8.621717-5.731341h-99.137389a9.881624 9.881624 0 0 0-8.745237 9.609879 15.711782 15.711782 0 0 0 0.568193 3.28564l114.132753 316.804854v181.970099a9.683991 9.683991 0 0 0 9.7334 9.634583h95.999973a9.659287 9.659287 0 0 0 9.634583-9.634583v-181.970099zM1222.233844 114.775059c-9.412247-19.911472-25.543997-39.92176-43.57796-52.125565C1111.905516 17.613994 761.997222 1.408131 699.940626 0.444673 675.755352 0 650.211355 0 622.542809 0h-1.334019c-0.345857 0-54.546563 0-78.756541 0.444673C480.173316 1.408131 130.265023 17.613994 63.736991 62.649494c-18.132779 12.203805-34.26453 32.115277-43.676776 52.125565C6.053013 144.889307 0.791049 186.688575 0.791049 210.503288l116.479638-0.172929c0.444673-8.201748 4.150282-30.880074 13.661345-45.974254 15.242404-24.086458 44.12145-31.818828 70.23364-35.647957a2570.926729 2570.926729 0 0 1 299.73435-26.408639c39.526495-1.161091 119.839391-1.531652 120.185247-1.531652h1.334019q59.487374 0 118.950045 1.630468A2569.222149 2569.222149 0 0 1 1041.004866 128.708148c26.334527 3.829129 55.114756 11.5615 70.23364 35.647957 9.634583 15.09418 13.439008 37.772506 13.784865 45.974254l116.479639 0.172929c0-23.814713-5.385485-65.613981-19.269166-95.728229z" fill="#82A70C" p-id="5628"></path><path d="M1222.233844 909.109376c-9.412247 19.936176-25.543997 39.995872-43.57796 52.150269-66.70096 45.084908-416.658661 61.266067-478.715258 62.229524-24.185274 0.395265-49.729271 0.568193-77.521338 0.494082h-1.334019c-0.345857 0-54.546563 0-78.75654-0.494082-62.155413-0.963458-412.063706-17.144617-478.616442-62.229524C45.579508 949.006431 29.472461 928.872623 20.060215 909.109376c-14.007202-30.138952-19.269166-71.962924-19.269166-95.752933l116.479638 0.197632c0.444673 8.201748 4.150282 30.85537 13.661345 45.998958 15.242404 24.111162 44.12145 31.744716 70.23364 35.623253a2571.173769 2571.173769 0 0 0 299.73435 26.433344c39.526495 1.185795 119.839391 1.531652 120.185247 1.531651h1.45754q59.487374 0.12352 118.950044-1.556355a2569.370373 2569.370373 0 0 0 299.610829-26.433344c26.334527-3.853833 55.114756-11.512092 70.233641-35.623253 9.634583-15.143588 13.439008-37.79721 13.784865-45.998958l116.479638-0.197632c-0.098816 23.814713-5.484301 65.638685-19.367982 95.777637z" fill="#82A70C" p-id="5629"></path></svg>